<svg xmlns="http://www.w3.org/2000/svg" width="29.25" height="29.25" viewBox="0 0 29.25 29.25">
  <path id="Icon_ionic-ios-alert" data-name="Icon ionic-ios-alert" d="M18,3.375A14.625,14.625,0,1,0,32.625,18,14.623,14.623,0,0,0,18,3.375Zm1.209,7.706-.218,8.093A1.006,1.006,0,0,1,18,20.215h0a1.006,1.006,0,0,1-.991-1.041l-.218-8.093A1.211,1.211,0,0,1,18,9.844h0A1.211,1.211,0,0,1,19.209,11.081ZM18,24.891A1.295,1.295,0,1,1,19.343,23.6,1.306,1.306,0,0,1,18,24.891Z" transform="translate(-3.375 -3.375)" fill="#e3da00"/>
</svg>
